<svg xmlns="http://www.w3.org/2000/svg" viewBox="0 0 512 512" role="img" aria-label="Receipt Spending Analyzer">
  <defs>
    <linearGradient id="bg" x1="0" y1="0" x2="1" y2="1">
      <stop offset="0" stop-color="#4ade80"/>
      <stop offset="1" stop-color="#38bdf8"/>
    </linearGradient>
  </defs>
  <rect width="512" height="512" rx="112" fill="url(#bg)"/>
  <!-- receipt body with torn/zigzag bottom -->
  <path fill="#0d1117" d="M150 108h212a16 16 0 0 1 16 16v272l-26-18-26 18-26-18-26 18-26-18-26 18-26-18-26 18-26-18-26 18V124a16 16 0 0 1 16-16z"/>
  <!-- line items -->
  <rect x="182" y="164" width="148" height="20" rx="10" fill="#4ade80"/>
  <rect x="182" y="212" width="112" height="16" rx="8" fill="#e6edf3"/>
  <rect x="316" y="212" width="14" height="16" rx="7" fill="#8b98a5"/>
  <rect x="182" y="252" width="96" height="16" rx="8" fill="#e6edf3"/>
  <rect x="316" y="252" width="14" height="16" rx="7" fill="#8b98a5"/>
  <rect x="182" y="292" width="120" height="16" rx="8" fill="#e6edf3"/>
  <rect x="316" y="292" width="14" height="16" rx="7" fill="#8b98a5"/>
</svg>
